<svg width="54" height="46" viewBox="0 0 54 46" fill="none" xmlns="http://www.w3.org/2000/svg">
<path d="M49.1525 7.27808H4.65384C2.5086 7.27808 0.769531 9.01295 0.769531 11.153V41.085C0.769531 43.2251 2.5086 44.96 4.65384 44.96H49.1525C51.2978 44.96 53.0369 43.2251 53.0369 41.085V11.153C53.0369 9.01295 51.2978 7.27808 49.1525 7.27808Z" stroke="white" stroke-width="1.5" stroke-miterlimit="10"/>
<path d="M43.7391 12.3813H10.0679C7.92266 12.3813 6.18359 14.1162 6.18359 16.2563V35.726C6.18359 37.866 7.92266 39.6009 10.0679 39.6009H43.7391C45.8843 39.6009 47.6234 37.866 47.6234 35.726V16.2563C47.6234 14.1162 45.8843 12.3813 43.7391 12.3813Z" stroke="white" stroke-width="1.5" stroke-miterlimit="10"/>
<path d="M26.9032 1.15381H18.4179C17.1807 1.15381 16.029 1.77574 15.3532 2.81035L13.512 5.62356C12.8361 6.65623 11.6825 7.2801 10.4473 7.2801" stroke="white" stroke-width="1.5" stroke-miterlimit="10"/>
<path d="M26.9023 1.15381H35.3876C36.6248 1.15381 37.7765 1.77574 38.4523 2.81035L40.2935 5.62356C40.9694 6.65623 42.123 7.2801 43.3582 7.2801" stroke="white" stroke-width="1.5" stroke-miterlimit="10"/>
<path d="M21.0593 17.4517H13.0925C12.0199 17.4517 11.1504 18.3191 11.1504 19.3891V32.6957C11.1504 33.7657 12.0199 34.6332 13.0925 34.6332H21.0593C22.1319 34.6332 23.0014 33.7657 23.0014 32.6957V19.3891C23.0014 18.3191 22.1319 17.4517 21.0593 17.4517Z" stroke="white" stroke-width="1.5" stroke-miterlimit="10"/>
<path d="M41.2585 17.4517H33.2918C32.2191 17.4517 31.3496 18.3191 31.3496 19.3891V32.6957C31.3496 33.7657 32.2191 34.6332 33.2918 34.6332H41.2585C42.3311 34.6332 43.2007 33.7657 43.2007 32.6957V19.3891C43.2007 18.3191 42.3311 17.4517 41.2585 17.4517Z" stroke="white" stroke-width="1.5" stroke-miterlimit="10"/>
<path d="M27.288 24.0953C27.7707 24.0953 28.162 23.7049 28.162 23.2234C28.162 22.7419 27.7707 22.3516 27.288 22.3516C26.8054 22.3516 26.4141 22.7419 26.4141 23.2234C26.4141 23.7049 26.8054 24.0953 27.288 24.0953Z" stroke="white" stroke-width="1.5" stroke-miterlimit="10"/>
<path d="M27.1943 30.0628C27.677 30.0628 28.0683 29.6725 28.0683 29.191C28.0683 28.7094 27.677 28.3191 27.1943 28.3191C26.7116 28.3191 26.3203 28.7094 26.3203 29.191C26.3203 29.6725 26.7116 30.0628 27.1943 30.0628Z" stroke="white" stroke-width="1.5" stroke-miterlimit="10"/>
<path d="M15.4362 21.3596H18.6407C19.0913 21.3596 19.4584 21.7239 19.4584 22.1753V24.9653C19.4584 25.4147 19.0932 25.7809 18.6407 25.7809H15.6712C15.2206 25.7809 14.8535 26.1452 14.8535 26.5966V29.6346C14.8535 30.0841 15.2186 30.4502 15.6712 30.4502H19.2642" stroke="white" stroke-width="1.5" stroke-linecap="round" stroke-linejoin="round"/>
<path d="M38.4666 21.3596H36.1768C35.5139 21.3596 34.9766 21.8957 34.9766 22.557V29.2509C34.9766 29.9122 35.5139 30.4483 36.1768 30.4483H38.4666C39.1295 30.4483 39.6669 29.9122 39.6669 29.2509V22.557C39.6669 21.8957 39.1295 21.3596 38.4666 21.3596Z" stroke="white" stroke-width="1.5" stroke-linecap="round" stroke-linejoin="round"/>
</svg>
