<svg width="50" height="51" viewBox="0 0 50 51" fill="none" xmlns="http://www.w3.org/2000/svg">
<path d="M45.3582 1.08936H4.64382C2.68101 1.08936 1.08984 2.69079 1.08984 4.66626V46.3336C1.08984 48.3091 2.68101 49.9105 4.64382 49.9105H45.3582C47.321 49.9105 48.9121 48.3091 48.9121 46.3336V4.66626C48.9121 2.69079 47.321 1.08936 45.3582 1.08936Z" stroke="white" stroke-width="1.5" stroke-linecap="round" stroke-linejoin="round"/>
<path d="M39.6022 42.9679H10.9661C9.00251 42.9679 7.41211 41.3672 7.41211 39.391V11.2783C7.41211 9.30208 9.00251 7.70142 10.9661 7.70142H39.6022C41.5658 7.70142 43.1562 9.30208 43.1562 11.2783V39.3892C43.1562 41.3654 41.5658 42.9661 39.6022 42.9661V42.9679Z" stroke="white" stroke-width="1.5" stroke-linecap="round" stroke-linejoin="round"/>
<path d="M25.2852 7.70142V42.9125" stroke="white" stroke-width="1.5" stroke-linecap="round" stroke-linejoin="round"/>
<path d="M7.37891 25.3623H43.1568" stroke="white" stroke-width="1.5" stroke-linecap="round" stroke-linejoin="round"/>
<path d="M11.4805 11.6055L21.4138 21.6047" stroke="white" stroke-width="1.5" stroke-linecap="round" stroke-linejoin="round"/>
<path d="M21.4138 11.6055L11.4805 21.6047" stroke="white" stroke-width="1.5" stroke-linecap="round" stroke-linejoin="round"/>
<path d="M34.5293 11.3499V21.637" stroke="white" stroke-width="1.5" stroke-linecap="round" stroke-linejoin="round"/>
<path d="M39.641 16.4934H29.418" stroke="white" stroke-width="1.5" stroke-linecap="round" stroke-linejoin="round"/>
<path d="M21.9066 34.0327H11.6836" stroke="white" stroke-width="1.5" stroke-linecap="round" stroke-linejoin="round"/>
<path d="M39.0085 34.0327H30.168" stroke="white" stroke-width="1.5" stroke-linecap="round" stroke-linejoin="round"/>
<path d="M34.6082 31.189C35.0499 31.189 35.4079 30.8286 35.4079 30.3841C35.4079 29.9397 35.0499 29.5793 34.6082 29.5793C34.1666 29.5793 33.8086 29.9397 33.8086 30.3841C33.8086 30.8286 34.1666 31.189 34.6082 31.189Z" stroke="white" stroke-width="1.5" stroke-linecap="round" stroke-linejoin="round"/>
<path d="M34.5243 38.4841C34.9659 38.4841 35.3239 38.1238 35.3239 37.6793C35.3239 37.2348 34.9659 36.8745 34.5243 36.8745C34.0826 36.8745 33.7246 37.2348 33.7246 37.6793C33.7246 38.1238 34.0826 38.4841 34.5243 38.4841Z" stroke="white" stroke-width="1.5" stroke-linecap="round" stroke-linejoin="round"/>
</svg>
