<svg width="50" height="49" viewBox="0 0 50 49" fill="none" xmlns="http://www.w3.org/2000/svg">
<path d="M34.5675 5H39.4187C44.7104 5 49 9.31343 49 14.6346V38.3654C49 43.6866 44.7104 48 39.4187 48H10.5813C5.28955 48 1 43.6866 1 38.3654V14.6361C1 9.31497 5.28955 5 10.5813 5H20.9637" stroke="white" stroke-width="1.5" stroke-linecap="round" stroke-linejoin="round"/>
<path d="M1 22C1 17.0293 5.28955 13 10.5813 13H39.4187C44.7104 13 49 17.0293 49 22" stroke="white" stroke-width="1.5" stroke-linecap="round" stroke-linejoin="round"/>
<path d="M39.8053 23.0015H49V36H39.8053C36.0492 36 33 33.0876 33 29.5C33 25.9124 36.0492 23 39.8053 23V23.0015Z" stroke="white" stroke-width="1.5" stroke-linecap="round" stroke-linejoin="round"/>
<path d="M43 29.5C43 28.1193 41.8807 27 40.5 27C39.1193 27 38 28.1193 38 29.5C38 30.8807 39.1193 32 40.5 32C41.8807 32 43 30.8807 43 29.5Z" stroke="white" stroke-width="1.5" stroke-linecap="round" stroke-linejoin="round"/>
<path d="M10 12.8743L24.2716 2.49592C27.4214 0.0397224 31.911 0.674453 34.2981 3.91333L41 13" stroke="white" stroke-width="1.5" stroke-linecap="round" stroke-linejoin="round"/>
<path d="M23 13L35 5" stroke="white" stroke-width="1.5" stroke-linecap="round" stroke-linejoin="round"/>
</svg>
