<svg width="38" height="51" viewBox="0 0 38 51" fill="none" xmlns="http://www.w3.org/2000/svg">
<path fill-rule="evenodd" clip-rule="evenodd" d="M16.3802 2.76999C15.1002 1.66999 14.7102 1.26999 14.7702 1.11999C14.9502 0.699995 18.8202 1.41999 22.0102 2.47999C29.4602 4.93999 35.6002 9.17999 37.2402 12.98C37.9402 14.6 38.1202 17.27 37.9202 23.08C37.6202 31.9 37.0402 34.79 35.1602 36.96C34.4802 37.74 33.6102 38.4 32.7802 38.76C30.0802 39.92 24.3302 40.24 15.0402 39.73C10.9602 39.51 8.85024 39.22 7.02024 38.65C4.44024 37.85 2.74024 36.37 1.83024 34.15C1.48024 33.3 1.06024 30.8 1.01024 29.34C0.920242 26.34 1.18024 19.1 1.49024 16.32C1.81024 13.43 2.43024 11.59 3.62024 9.96C4.15024 9.23 4.38024 9.00999 5.07024 8.51999C6.30024 7.63999 7.04024 7.39 9.38024 7.02999C11.8202 6.66 13.8202 6.55999 17.5802 6.64999C18.5302 6.66999 19.5302 6.68 19.8002 6.66999C20.2602 6.65999 20.2902 6.63999 20.2702 6.47999C20.2302 6.17999 19.2402 5.24 16.3802 2.76999ZM21.6002 23.52C20.3702 23.1 19.2302 22.84 18.3502 22.76C17.5802 22.69 16.8902 22.76 16.6002 22.93C16.1002 23.23 15.6202 24.31 15.5002 25.44C15.2802 27.4 16.1602 28.32 19.2702 29.37C23.2102 30.71 25.2302 30.41 26.9002 28.24C27.4102 27.58 27.8402 26.67 27.6702 26.6C27.6202 26.58 27.2802 26.71 26.9102 26.89C24.7702 27.92 23.8802 28.18 23.3002 27.92C22.6802 27.65 22.6502 27.09 23.1802 25.91C23.5602 25.07 23.6002 24.79 23.4102 24.45C23.2402 24.15 22.7802 23.91 21.6102 23.52H21.6002ZM33.9402 26.04C34.3902 25.31 34.4302 25.22 34.3002 25.12C34.1202 24.98 32.6302 25.15 31.7902 25.4C29.6002 26.05 29.0302 26.78 29.5102 28.25C29.9002 29.42 30.6202 29.96 31.8502 29.99C33.2302 30.02 34.4602 29.37 35.4602 28.09C36.3802 26.92 36.3602 26.71 35.4002 27.36C34.6402 27.88 34.1302 28.03 33.6702 27.87C33.4402 27.79 33.3402 27.69 33.2902 27.52C33.2202 27.23 33.2902 27.08 33.9302 26.04H33.9402ZM7.75024 47.48C8.62024 44.93 10.4302 43.63 13.5202 43.34C14.5902 43.24 24.2902 43.31 25.3402 43.43C26.3602 43.54 27.0802 43.76 27.9302 44.21C28.6502 44.59 29.5302 45.43 29.9202 46.1C30.5202 47.12 31.0502 49.01 31.1402 50.42C31.1602 50.71 30.9202 50.96 30.6302 50.94L29.9002 50.9C28.0502 50.8 8.59024 50.84 7.92024 50.94C7.62024 50.99 7.32024 51.01 7.26024 50.98C7.00024 50.88 7.29024 48.86 7.76024 47.47L7.75024 47.48Z" fill="#BDBDBD"/>
</svg>
