<svg width="54" height="64" viewBox="0 0 54 64" fill="none" xmlns="http://www.w3.org/2000/svg">
<path fill-rule="evenodd" clip-rule="evenodd" d="M32.3802 15.77C31.1002 14.67 30.7102 14.27 30.7702 14.12C30.9502 13.7 34.8202 14.42 38.0102 15.48C45.4602 17.94 51.6002 22.18 53.2402 25.98C53.9402 27.6 54.1202 30.27 53.9202 36.08C53.6202 44.9 53.0402 47.79 51.1602 49.96C50.4802 50.74 49.6102 51.4 48.7802 51.76C46.0802 52.92 40.3302 53.24 31.0402 52.73C26.9602 52.51 24.8502 52.22 23.0202 51.65C20.4402 50.85 18.7402 49.37 17.8302 47.15C17.4802 46.3 17.0602 43.8 17.0102 42.34C16.9202 39.34 17.1802 32.1 17.4902 29.32C17.8102 26.43 18.4302 24.59 19.6202 22.96C20.1502 22.23 20.3802 22.01 21.0702 21.52C22.3002 20.64 23.0402 20.39 25.3802 20.03C27.8202 19.66 29.8202 19.56 33.5802 19.65C34.5302 19.67 35.5302 19.68 35.8002 19.67C36.2602 19.66 36.2902 19.64 36.2702 19.48C36.2302 19.18 35.2402 18.24 32.3802 15.77ZM37.6002 36.52C36.3702 36.1 35.2302 35.84 34.3502 35.76C33.5802 35.69 32.8902 35.76 32.6002 35.93C32.1002 36.23 31.6202 37.31 31.5002 38.44C31.2802 40.4 32.1602 41.32 35.2702 42.37C39.2102 43.71 41.2302 43.41 42.9002 41.24C43.4102 40.58 43.8402 39.67 43.6702 39.6C43.6202 39.58 43.2802 39.71 42.9102 39.89C40.7702 40.92 39.8802 41.18 39.3002 40.92C38.6802 40.65 38.6502 40.09 39.1802 38.91C39.5602 38.07 39.6002 37.79 39.4102 37.45C39.2402 37.15 38.7802 36.91 37.6102 36.52H37.6002ZM49.9402 39.04C50.3902 38.31 50.4302 38.22 50.3002 38.12C50.1202 37.98 48.6302 38.15 47.7902 38.4C45.6002 39.05 45.0302 39.78 45.5102 41.25C45.9002 42.42 46.6202 42.96 47.8502 42.99C49.2302 43.02 50.4602 42.37 51.4602 41.09C52.3802 39.92 52.3602 39.71 51.4002 40.36C50.6402 40.88 50.1302 41.03 49.6702 40.87C49.4402 40.79 49.3402 40.69 49.2902 40.52C49.2202 40.23 49.2902 40.08 49.9302 39.04H49.9402ZM23.7502 60.48C24.6202 57.93 26.4302 56.63 29.5202 56.34C30.5902 56.24 40.2902 56.31 41.3402 56.43C42.3602 56.54 43.0802 56.76 43.9302 57.21C44.6502 57.59 45.5302 58.43 45.9202 59.1C46.5202 60.12 47.0502 62.01 47.1402 63.42C47.1602 63.71 46.9202 63.96 46.6302 63.94L45.9002 63.9C44.0502 63.8 24.5902 63.84 23.9202 63.94C23.6202 63.99 23.3202 64.01 23.2602 63.98C23.0002 63.88 23.2902 61.86 23.7602 60.47L23.7502 60.48Z" fill="#CCA161"/>
<path d="M15.7593 3.0584C15.4484 3.1443 15.1761 3.324 14.9772 3.5746C14.7783 3.82521 14.6618 4.13538 14.6424 4.46562L14.4563 7.51573L9.08338 6.80999C8.64402 6.75235 8.21197 6.87273 7.88222 7.14468C7.55248 7.41663 7.35204 7.81786 7.32499 8.26016L6.99501 13.6692L3.96525 13.2712C3.6376 13.2283 3.31135 13.284 3.02775 13.4315C2.74414 13.579 2.51592 13.8116 2.37194 14.0999C2.22795 14.3881 2.17466 14.7191 2.21881 15.0511C2.26295 15.383 2.40255 15.7009 2.61995 15.9646L8.44037 23.0221C9.1702 23.905 10.1968 24.4819 11.295 24.6261C12.3932 24.7704 13.4733 24.4702 14.2984 23.7915L23.0032 16.6125C23.8266 15.9317 24.3269 14.9284 24.3943 13.8229C24.4618 12.7173 24.0909 11.5997 23.363 10.7151L17.5426 3.65764C17.3252 3.3939 17.0397 3.1962 16.7223 3.08953C16.4049 2.98287 16.0697 2.97203 15.7593 3.0584Z" fill="#C8841E"/>
</svg>
