<svg width="75" height="75" viewBox="0 0 75 75" fill="none" xmlns="http://www.w3.org/2000/svg">
<circle cx="37.8695" cy="37.8724" r="36.9296" fill="#FFD28E"/>
<path d="M41.2196 50.3046C40.9197 50.5902 40.9081 51.065 41.1938 51.3649C41.4794 51.6649 41.9542 51.6765 42.2541 51.3908L41.2196 50.3046ZM55.3541 38.9146C55.6541 38.6289 55.6656 38.1542 55.38 37.8542C55.0943 37.5543 54.6196 37.5427 54.3196 37.8284L55.3541 38.9146ZM54.3197 38.9146C54.6196 39.2003 55.0944 39.1887 55.38 38.8888C55.6657 38.5888 55.6541 38.1141 55.3542 37.8284L54.3197 38.9146ZM42.2541 25.3522C41.9542 25.0666 41.4795 25.0781 41.1938 25.3781C40.9081 25.678 40.9197 26.1528 41.2197 26.4384L42.2541 25.3522ZM54.8369 39.1215C55.2511 39.1215 55.5869 38.7857 55.5869 38.3715C55.5869 37.9573 55.2511 37.6215 54.8369 37.6215V39.1215ZM19.9036 37.6215C19.4893 37.6215 19.1536 37.9573 19.1536 38.3715C19.1536 38.7857 19.4893 39.1215 19.9036 39.1215V37.6215ZM42.2541 51.3908L55.3541 38.9146L54.3196 37.8284L41.2196 50.3046L42.2541 51.3908ZM55.3542 37.8284L42.2541 25.3522L41.2197 26.4384L54.3197 38.9146L55.3542 37.8284ZM54.8369 37.6215H19.9036V39.1215H54.8369V37.6215Z" fill="black"/>
</svg>
