<svg width="28" height="28" viewBox="0 0 28 28" fill="none" xmlns="http://www.w3.org/2000/svg">
<path d="M26.7023 14.7647C26.7023 14.2124 26.2546 13.7647 25.7023 13.7647C25.15 13.7647 24.7023 14.2124 24.7023 14.7647H26.7023ZM13.3512 3.52941C13.9034 3.52941 14.3512 3.0817 14.3512 2.52941C14.3512 1.97713 13.9034 1.52941 13.3512 1.52941V3.52941ZM20.5267 14.7647C20.5267 14.2124 20.079 13.7647 19.5267 13.7647C18.9745 13.7647 18.5267 14.2124 18.5267 14.7647H20.5267ZM13.3512 9.64706C13.9034 9.64706 14.3512 9.19934 14.3512 8.64706C14.3512 8.09477 13.9034 7.64706 13.3512 7.64706V9.64706ZM19.5134 9.82124C19.9058 9.43256 19.9088 8.79941 19.5201 8.40704C19.1314 8.01468 18.4982 8.0117 18.1059 8.40038L19.5134 9.82124ZM12.6474 13.8077C12.255 14.1963 12.252 14.8295 12.6407 15.2219C13.0294 15.6142 13.6626 15.6172 14.0549 15.2285L12.6474 13.8077ZM27 5.32583L27.7038 6.03626C27.9736 5.76893 28.0687 5.37178 27.9492 5.01121C27.8297 4.65065 27.5162 4.38892 27.1401 4.3357L27 5.32583ZM22.0874 10.1924L21.7738 11.142C22.1309 11.2599 22.524 11.1675 22.7911 10.9028L22.0874 10.1924ZM17.7206 5.86656L17.0168 5.15613C16.7458 5.42461 16.6511 5.8239 16.7728 6.18548L17.7206 5.86656ZM22.6332 1L23.623 0.857266C23.5691 0.483449 23.3091 0.171895 22.951 0.0518536C22.5929 -0.0681874 22.1978 0.0237669 21.9294 0.289569L22.6332 1ZM18.8123 9.11093L17.8645 9.42985C17.9649 9.72816 18.1998 9.96181 18.4987 10.0605L18.8123 9.11093ZM23.1791 4.7851L22.1893 4.92783C22.2527 5.36772 22.5989 5.71296 23.0389 5.77524L23.1791 4.7851ZM24.7023 14.7647C24.7023 20.9609 19.6291 26 13.3512 26V28C20.7159 28 26.7023 22.0832 26.7023 14.7647H24.7023ZM13.3512 26C7.07318 26 2 20.9609 2 14.7647H0C0 22.0832 5.98642 28 13.3512 28V26ZM2 14.7647C2 8.56849 7.07318 3.52941 13.3512 3.52941V1.52941C5.98642 1.52941 0 7.44619 0 14.7647H2ZM18.5267 14.7647C18.5267 17.5822 16.2185 19.8824 13.3512 19.8824V21.8824C17.3052 21.8824 20.5267 18.7045 20.5267 14.7647H18.5267ZM13.3512 19.8824C10.4839 19.8824 8.17558 17.5822 8.17558 14.7647H6.17558C6.17558 18.7045 9.3971 21.8824 13.3512 21.8824V19.8824ZM8.17558 14.7647C8.17558 11.9472 10.4839 9.64706 13.3512 9.64706V7.64706C9.3971 7.64706 6.17558 10.8249 6.17558 14.7647H8.17558ZM18.1059 8.40038L12.6474 13.8077L14.0549 15.2285L19.5134 9.82124L18.1059 8.40038ZM26.2962 4.6154L21.3836 9.48196L22.7911 10.9028L27.7038 6.03626L26.2962 4.6154ZM18.4243 6.57699L23.337 1.71043L21.9294 0.289569L17.0168 5.15613L18.4243 6.57699ZM22.4009 9.24282L19.1258 8.16136L18.4987 10.0605L21.7738 11.142L22.4009 9.24282ZM19.76 8.79201L18.6683 5.54764L16.7728 6.18548L17.8645 9.42985L19.76 8.79201ZM21.6434 1.14273L22.1893 4.92783L24.1688 4.64237L23.623 0.857266L21.6434 1.14273ZM23.0389 5.77524L26.8599 6.31596L27.1401 4.3357L23.3192 3.79497L23.0389 5.77524Z" fill="white"/>
</svg>
