<svg width="24" height="24" viewBox="0 0 24 24" fill="none" xmlns="http://www.w3.org/2000/svg">
<circle cx="12" cy="12" r="12" fill="url(#paint0_linear_134_3151)"/>
<path fill-rule="evenodd" clip-rule="evenodd" d="M8 5C5.79086 5 4 6.93077 4 9.3125V14.4875C4 16.8692 5.79086 18.8 8 18.8H16C18.2091 18.8 20 16.8692 20 14.4875V9.3125C20 6.93077 18.2091 5 16 5H8ZM7.67177 8.7293C7.34967 8.46886 6.87744 8.51884 6.617 8.84093C6.35655 9.16302 6.40653 9.63526 6.72862 9.8957L10.2711 12.7601C11.2796 13.5756 12.7208 13.5756 13.7293 12.7601L17.2718 9.8957C17.5939 9.63526 17.6438 9.16302 17.3834 8.84093C17.123 8.51884 16.6507 8.46886 16.3286 8.7293L12.7861 11.5937C12.3277 11.9644 11.6727 11.9644 11.2142 11.5937L7.67177 8.7293Z" fill="white"/>
<defs>
<linearGradient id="paint0_linear_134_3151" x1="12" y1="0" x2="12" y2="24" gradientUnits="userSpaceOnUse">
<stop stop-color="#FFD28E"/>
<stop offset="1" stop-color="#C68A31"/>
</linearGradient>
</defs>
</svg>
