<svg width="40" height="40" viewBox="0 0 40 40" fill="none" xmlns="http://www.w3.org/2000/svg">
<path d="M27.4246 13.9896C27.8151 13.5991 27.8151 12.9659 27.4246 12.5754C27.0341 12.1849 26.4009 12.1849 26.0104 12.5754L27.4246 13.9896ZM12.5754 26.0104C12.1849 26.4009 12.1849 27.0341 12.5754 27.4246C12.9659 27.8151 13.5991 27.8151 13.9896 27.4246L12.5754 26.0104ZM26.0104 27.4246C26.4009 27.8151 27.0341 27.8151 27.4246 27.4246C27.8151 27.0341 27.8151 26.4009 27.4246 26.0104L26.0104 27.4246ZM13.9896 12.5754C13.5991 12.1849 12.9659 12.1849 12.5754 12.5754C12.1849 12.9659 12.1849 13.5991 12.5754 13.9896L13.9896 12.5754ZM38 20C38 29.9411 29.9411 38 20 38V40C31.0457 40 40 31.0457 40 20H38ZM20 38C10.0589 38 2 29.9411 2 20H0C0 31.0457 8.9543 40 20 40V38ZM2 20C2 10.0589 10.0589 2 20 2V0C8.9543 0 0 8.9543 0 20H2ZM20 2C29.9411 2 38 10.0589 38 20H40C40 8.9543 31.0457 0 20 0V2ZM26.0104 12.5754L19.2929 19.2929L20.7071 20.7071L27.4246 13.9896L26.0104 12.5754ZM19.2929 19.2929L12.5754 26.0104L13.9896 27.4246L20.7071 20.7071L19.2929 19.2929ZM27.4246 26.0104L20.7071 19.2929L19.2929 20.7071L26.0104 27.4246L27.4246 26.0104ZM20.7071 19.2929L13.9896 12.5754L12.5754 13.9896L19.2929 20.7071L20.7071 19.2929Z" fill="#EA3D3D"/>
</svg>
