<svg width="21" height="18" viewBox="0 0 21 18" fill="none" xmlns="http://www.w3.org/2000/svg">
<path id="Vector" d="M19.9202 1.96091C19.6005 1.82219 19.2484 1.78572 18.9087 1.85616C18.569 1.9266 18.2571 2.10076 18.0128 2.35645L15.75 4.71329L11.7372 0.533683C11.4091 0.191966 10.964 0 10.5 0C10.036 0 9.59092 0.191966 9.26275 0.533683L5.25 4.71329L2.98725 2.35645C2.74251 2.10161 2.43072 1.92807 2.09131 1.85777C1.75189 1.78747 1.40008 1.82357 1.08035 1.9615C0.76063 2.09943 0.487345 2.333 0.295047 2.63268C0.10275 2.93236 7.38926e-05 3.2847 0 3.64515L0 13.2931C0.00138938 14.5012 0.462772 15.6594 1.28294 16.5137C2.10311 17.368 3.2151 17.8486 4.375 17.85H16.625C17.7849 17.8486 18.8969 17.368 19.7171 16.5137C20.5372 15.6594 20.9986 14.5012 21 13.2931V3.64515C21.0001 3.28467 20.8976 2.93226 20.7054 2.63247C20.5132 2.33268 20.2399 2.09898 19.9202 1.96091ZM19.25 13.2931C19.25 14.0182 18.9734 14.7137 18.4812 15.2264C17.9889 15.7392 17.3212 16.0272 16.625 16.0272H4.375C3.67881 16.0272 3.01113 15.7392 2.51884 15.2264C2.02656 14.7137 1.75 14.0182 1.75 13.2931V3.64515L4.63137 6.64634C4.79546 6.8172 5.01798 6.91318 5.25 6.91318C5.48202 6.91318 5.70454 6.8172 5.86862 6.64634L10.5 1.82238L15.1314 6.64634C15.2955 6.8172 15.518 6.91318 15.75 6.91318C15.982 6.91318 16.2045 6.8172 16.3686 6.64634L19.25 3.64515V13.2931Z" fill="black"/>
</svg>
