<svg width="18" height="17" viewBox="0 0 18 17" fill="none" xmlns="http://www.w3.org/2000/svg">
<path d="M10.7117 12.3053C12.8403 12.3053 14.5659 10.6158 14.5659 8.53169C14.5659 6.44761 12.8403 4.75812 10.7117 4.75812C8.58303 4.75812 6.85742 6.44761 6.85742 8.53169C6.85742 10.6158 8.58303 12.3053 10.7117 12.3053Z" stroke="#7D8093" stroke-width="1.5" stroke-miterlimit="10"/>
<path d="M10.7126 6.96698L9.25098 8.00759L9.80862 9.68906H11.6166L12.1742 8.00759L10.7126 6.96698Z" fill="#7D8093" stroke="#7D8093" stroke-miterlimit="10"/>
<path d="M10.7139 6.96698V4.75977" stroke="#7D8093" stroke-width="1.5" stroke-miterlimit="10"/>
<path d="M9.25176 8.00755L7.06885 7.30914" stroke="#7D8093" stroke-width="1.5" stroke-miterlimit="10"/>
<path d="M9.80918 9.68915L8.33008 11.4966" stroke="#7D8093" stroke-width="1.5" stroke-miterlimit="10"/>
<path d="M11.6177 9.68915L13.1619 11.4453" stroke="#7D8093" stroke-width="1.5" stroke-miterlimit="10"/>
<path d="M12.1753 8.0075L14.309 7.17377" stroke="#7D8093" stroke-width="1.5" stroke-miterlimit="10"/>
<path d="M9.80029 16.0498L14.0497 13.7592C15.8643 12.7018 17 10.6185 17 8.3473V8.55106C17 6.27984 15.8643 4.19657 14.0497 3.13913L9.80029 0.850342" stroke="#7D8093" stroke-width="1.5" stroke-miterlimit="10"/>
<path d="M0 8.53174H4.13863" stroke="#7D8093" stroke-width="1.5" stroke-miterlimit="10"/>
<path d="M5.50935 4.54337L1.59473 3.31299" stroke="#7D8093" stroke-width="1.5" stroke-miterlimit="10"/>
<path d="M5.50935 12.5212L1.59473 13.7501" stroke="#7D8093" stroke-width="1.5" stroke-miterlimit="10"/>
</svg>
