<svg width="60" height="15" viewBox="0 0 60 15" fill="none" xmlns="http://www.w3.org/2000/svg">
<path id="Vector-12" d="M51.7328 13.4093C51.4329 13.695 51.4213 14.1697 51.707 14.4696C51.9926 14.7696 52.4674 14.7812 52.7673 14.4955L51.7328 13.4093ZM59.5172 8.06701C59.8172 7.78134 59.8288 7.30661 59.5431 7.00666C59.2574 6.70672 58.7827 6.69514 58.4828 6.9808L59.5172 8.06701ZM58.4828 8.06701C58.7827 8.35267 59.2574 8.3411 59.5431 8.04115C59.8288 7.7412 59.8172 7.26647 59.5172 6.9808L58.4828 8.06701ZM52.7673 0.552315C52.4674 0.26665 51.9926 0.278229 51.707 0.578176C51.4213 0.878124 51.4329 1.35286 51.7328 1.63852L52.7673 0.552315ZM59 8.25C59.4142 8.25 59.75 7.91421 59.75 7.5C59.75 7.08579 59.4142 6.75 59 6.75V8.25ZM1 6.75C0.585789 6.75 0.25 7.08579 0.25 7.5C0.25 7.91421 0.585789 8.25 1 8.25V6.75ZM52.7673 14.4955L59.5172 8.06701L58.4828 6.9808L51.7328 13.4093L52.7673 14.4955ZM59.5172 6.9808L52.7673 0.552315L51.7328 1.63852L58.4828 8.06701L59.5172 6.9808ZM59 6.75L1 6.75V8.25L59 8.25V6.75Z" fill="#676777"/>
</svg>
