<svg width="25" height="25" viewBox="0 0 25 25" fill="none" xmlns="http://www.w3.org/2000/svg">
<circle cx="12.5" cy="12.5" r="12.5" fill="white"/>
<path d="M13.0765 15.0819C12.7766 15.3676 12.765 15.8423 13.0506 16.1422C13.3363 16.4422 13.811 16.4538 14.111 16.1681L13.0765 15.0819ZM17.3922 13.0431C17.6922 12.7574 17.7038 12.2827 17.4181 11.9828C17.1324 11.6828 16.6577 11.6712 16.3578 11.9569L17.3922 13.0431ZM16.3578 13.0431C16.6577 13.3288 17.1324 13.3172 17.4181 13.0172C17.7038 12.7173 17.6922 12.2426 17.3922 11.9569L16.3578 13.0431ZM14.111 8.8319C13.811 8.54623 13.3363 8.55781 13.0506 8.85776C12.765 9.15771 12.7766 9.63244 13.0765 9.9181L14.111 8.8319ZM16.875 13.2501C17.2892 13.2501 17.625 12.9143 17.625 12.5001C17.625 12.0858 17.2892 11.7501 16.875 11.7501V13.2501ZM8.125 11.7501C7.71079 11.7501 7.375 12.0858 7.375 12.5001C7.375 12.9143 7.71079 13.2501 8.125 13.2501V11.7501ZM14.111 16.1681L17.3922 13.0431L16.3578 11.9569L13.0765 15.0819L14.111 16.1681ZM17.3922 11.9569L14.111 8.8319L13.0765 9.9181L16.3578 13.0431L17.3922 11.9569ZM16.875 11.7501H8.125V13.2501H16.875V11.7501Z" fill="black"/>
</svg>
