<svg width="48" height="48" viewBox="0 0 48 48" fill="none" xmlns="http://www.w3.org/2000/svg">
<circle cx="24" cy="24" r="24" fill="#C68A31"/>
<path d="M27.091 28C33.661 27.964 36 24.484 36 21.5C35.9994 20.7001 35.7247 19.9245 35.2218 19.3024C34.7189 18.6803 34.0181 18.2492 33.236 18.081C33.372 17.694 33.49 17.339 33.569 17.07C33.7436 16.485 33.7779 15.867 33.6691 15.2662C33.5603 14.6655 33.3116 14.0988 32.943 13.612C32.5714 13.1099 32.0868 12.7023 31.5285 12.4223C30.9701 12.1422 30.3537 11.9976 29.729 12H18.271C17.6463 11.9976 17.0299 12.1422 16.4715 12.4223C15.9132 12.7023 15.4286 13.1099 15.057 13.612C14.6884 14.0988 14.4397 14.6655 14.3309 15.2662C14.2221 15.867 14.2564 16.485 14.431 17.07C14.51 17.339 14.631 17.694 14.764 18.081C13.9819 18.2492 13.2811 18.6803 12.7782 19.3024C12.2753 19.9245 12.0006 20.7001 12 21.5C12 24.484 14.339 27.964 20.909 28C20.9674 28.3036 20.9979 28.6119 21 28.921V32C21.0172 32.2671 20.9772 32.5348 20.8828 32.7853C20.7884 33.0357 20.6416 33.2631 20.4524 33.4524C20.2631 33.6417 20.0357 33.7884 19.7852 33.8828C19.5348 33.9773 19.2671 34.0172 19 34H18C17.7348 34 17.4804 34.1054 17.2929 34.2929C17.1054 34.4805 17 34.7348 17 35C17 35.2652 17.1054 35.5196 17.2929 35.7071C17.4804 35.8947 17.7348 36 18 36H30C30.2652 36 30.5196 35.8947 30.7071 35.7071C30.8946 35.5196 31 35.2652 31 35C31 34.7348 30.8946 34.4805 30.7071 34.2929C30.5196 34.1054 30.2652 34 30 34H29.008C28.7403 34.0181 28.4719 33.9788 28.2206 33.8848C27.9694 33.7907 27.7411 33.6442 27.551 33.4549C27.3609 33.2655 27.2134 33.0378 27.1184 32.7869C27.0234 32.536 26.983 32.2678 27 32V28.92C27.0022 28.6112 27.0326 28.3033 27.091 28ZM32.5 20C32.8978 20 33.2794 20.1581 33.5607 20.4394C33.842 20.7207 34 21.1022 34 21.5C34 23.534 32.391 25.7 27.964 25.97C28.1854 25.6678 28.4411 25.3923 28.726 25.149C30.32 23.713 31.5904 21.9545 32.453 19.99C32.469 19.991 32.483 20 32.5 20ZM14 21.5C14 21.1022 14.158 20.7207 14.4393 20.4394C14.7206 20.1581 15.1022 20 15.5 20C15.517 20 15.531 19.991 15.547 19.99C16.4096 21.9545 17.68 23.713 19.274 25.149C19.5589 25.3923 19.8146 25.6678 20.036 25.97C15.609 25.7 14 23.534 14 21.5ZM22.513 34C22.8436 33.3859 23.0113 32.6974 23 32V28.921C23.0035 27.9149 22.7878 26.92 22.368 26.0056C21.9482 25.0912 21.3343 24.2792 20.569 23.626C18.5355 21.6826 17.0756 19.2174 16.349 16.5C16.2636 16.2132 16.2472 15.9103 16.3011 15.6159C16.3549 15.3215 16.4776 15.044 16.659 14.806C16.8455 14.5546 17.0887 14.3505 17.3687 14.2105C17.6488 14.0705 17.9579 13.9984 18.271 14H29.729C30.0424 13.9988 30.3518 14.0716 30.6318 14.2123C30.9119 14.353 31.1549 14.5578 31.341 14.81C31.5224 15.048 31.6451 15.3255 31.6989 15.6199C31.7528 15.9143 31.7364 16.2172 31.651 16.504C30.9237 19.2199 29.4638 21.6837 27.431 23.626C26.6657 24.279 26.0518 25.0909 25.632 26.0051C25.2122 26.9193 24.9965 27.914 25 28.92V32C24.9887 32.6974 25.1564 33.3859 25.487 34H22.513Z" fill="black"/>
</svg>
