<svg width="48" height="48" viewBox="0 0 48 48" fill="none" xmlns="http://www.w3.org/2000/svg">
<circle cx="24" cy="24" r="24" fill="#C68A31"/>
<path d="M34.766 14.5661C34.4006 14.4139 33.9981 14.3739 33.6099 14.4512C33.2217 14.5285 32.8653 14.7196 32.586 15.0001L30 17.5861L25.414 13.0001C25.0389 12.6252 24.5303 12.4146 24 12.4146C23.4697 12.4146 22.9611 12.6252 22.586 13.0001L18 17.5861L15.414 15.0001C15.1343 14.7205 14.778 14.5301 14.3901 14.453C14.0022 14.3758 13.6001 14.4154 13.2347 14.5668C12.8693 14.7181 12.557 14.9744 12.3372 15.3032C12.1174 15.632 12.0001 16.0186 12 16.4141V27.0001C12.0016 28.3257 12.5289 29.5966 13.4662 30.5339C14.4036 31.4712 15.6744 31.9985 17 32.0001H31C32.3256 31.9985 33.5964 31.4712 34.5338 30.5339C35.4711 29.5966 35.9984 28.3257 36 27.0001V16.4141C36.0001 16.0186 35.8829 15.6319 35.6633 15.303C35.4436 14.974 35.1314 14.7176 34.766 14.5661ZM34 27.0001C34 27.7958 33.6839 28.5588 33.1213 29.1214C32.5587 29.6841 31.7956 30.0001 31 30.0001H17C16.2044 30.0001 15.4413 29.6841 14.8787 29.1214C14.3161 28.5588 14 27.7958 14 27.0001V16.4141L17.293 19.7071C17.4805 19.8946 17.7348 19.9999 18 19.9999C18.2652 19.9999 18.5195 19.8946 18.707 19.7071L24 14.4141L29.293 19.7071C29.4805 19.8946 29.7348 19.9999 30 19.9999C30.2652 19.9999 30.5195 19.8946 30.707 19.7071L34 16.4141V27.0001Z" fill="black"/>
</svg>
