<svg width="48" height="48" viewBox="0 0 48 48" fill="none" xmlns="http://www.w3.org/2000/svg">
<circle cx="24" cy="24" r="24" fill="#C68A31"/>
<path d="M27.0394 15.0005C26.3836 15.0021 25.7463 15.2178 25.2244 15.615C24.7026 16.0121 24.3247 16.5688 24.1484 17.2005L20.0994 31.7685C20.0026 32.1197 19.7941 32.4299 19.5055 32.6521C19.2168 32.8744 18.8637 32.9967 18.4994 33.0005C18.1431 32.9958 17.7968 32.8822 17.5069 32.6751C17.217 32.4679 16.9973 32.177 16.8774 31.8415L14.0844 24.1615C13.9024 23.6382 13.5974 23.1663 13.1951 22.7853C12.7928 22.4044 12.3049 22.1257 11.7724 21.9725C11.5146 21.91 11.2922 21.7477 11.1541 21.5213C11.016 21.2948 10.9735 21.0228 11.0359 20.765C11.0984 20.5072 11.2607 20.2848 11.4872 20.1467C11.7136 20.0085 11.9856 19.966 12.2434 20.0285C13.0976 20.2574 13.8829 20.6913 14.5314 21.2925C15.1798 21.8937 15.6717 22.6441 15.9644 23.4785L18.4384 30.2785L22.2224 16.6625C22.5171 15.6108 23.147 14.6841 24.0164 14.0232C24.8858 13.3622 25.9473 13.0031 27.0394 13.0005H33.9994C34.2646 13.0005 34.519 13.1058 34.7065 13.2934C34.8941 13.4809 34.9994 13.7353 34.9994 14.0005C34.9994 14.2657 34.8941 14.5201 34.7065 14.7076C34.519 14.8951 34.2646 15.0005 33.9994 15.0005H27.0394ZM34.5994 23.2005C34.3872 23.0414 34.1205 22.973 33.858 23.0105C33.5954 23.048 33.3585 23.1883 33.1994 23.4005L30.9994 26.3335L28.7994 23.4005C28.6403 23.1883 28.4034 23.048 28.1408 23.0105C27.8783 22.973 27.6116 23.0414 27.3994 23.2005C27.1872 23.3596 27.047 23.5965 27.0095 23.8591C26.972 24.1216 27.0403 24.3883 27.1994 24.6005L29.7494 28.0005L27.1994 31.4005C27.1206 31.5055 27.0633 31.6251 27.0307 31.7523C26.9981 31.8795 26.9909 32.0119 27.0095 32.1419C27.028 32.2719 27.072 32.397 27.1389 32.51C27.2059 32.623 27.2944 32.7217 27.3994 32.8005C27.5045 32.8793 27.624 32.9366 27.7512 32.9692C27.8785 33.0018 28.0108 33.009 28.1408 32.9904C28.2708 32.9719 28.3959 32.9279 28.5089 32.861C28.6219 32.7941 28.7206 32.7055 28.7994 32.6005L30.9994 29.6675L33.1994 32.6005C33.2782 32.7055 33.3769 32.7941 33.4899 32.861C33.6029 32.9279 33.728 32.9719 33.858 32.9904C33.988 33.009 34.1204 33.0018 34.2476 32.9692C34.3748 32.9366 34.4944 32.8793 34.5994 32.8005C34.7045 32.7217 34.793 32.623 34.8599 32.51C34.9268 32.397 34.9708 32.2719 34.9894 32.1419C35.0079 32.0119 35.0007 31.8795 34.9681 31.7523C34.9355 31.6251 34.8782 31.5055 34.7994 31.4005L32.2494 28.0005L34.7994 24.6005C34.8782 24.4954 34.9355 24.3759 34.9681 24.2487C35.0007 24.1215 35.0079 23.9891 34.9894 23.8591C34.9708 23.7291 34.9268 23.604 34.8599 23.491C34.793 23.378 34.7045 23.2793 34.5994 23.2005Z" fill="black"/>
</svg>
