<svg width="48" height="48" viewBox="0 0 48 48" fill="none" xmlns="http://www.w3.org/2000/svg">
<circle cx="24" cy="24" r="24" fill="#C68A31"/>
<path d="M31 13H30V12C30 11.7348 29.8946 11.4804 29.7071 11.2929C29.5196 11.1054 29.2652 11 29 11C28.7348 11 28.4804 11.1054 28.2929 11.2929C28.1054 11.4804 28 11.7348 28 12V13H20V12C20 11.7348 19.8946 11.4804 19.7071 11.2929C19.5196 11.1054 19.2652 11 19 11C18.7348 11 18.4804 11.1054 18.2929 11.2929C18.1054 11.4804 18 11.7348 18 12V13H17C15.6744 13.0016 14.4036 13.5289 13.4662 14.4662C12.5289 15.4036 12.0016 16.6744 12 18L12 30C12.0016 31.3256 12.5289 32.5964 13.4662 33.5338C14.4036 34.4711 15.6744 34.9984 17 35H31C32.3256 34.9984 33.5964 34.4711 34.5338 33.5338C35.4711 32.5964 35.9984 31.3256 36 30V18C35.9984 16.6744 35.4711 15.4036 34.5338 14.4662C33.5964 13.5289 32.3256 13.0016 31 13ZM14 18C14 17.2044 14.3161 16.4413 14.8787 15.8787C15.4413 15.3161 16.2044 15 17 15H31C31.7956 15 32.5587 15.3161 33.1213 15.8787C33.6839 16.4413 34 17.2044 34 18V19H14V18ZM31 33H17C16.2044 33 15.4413 32.6839 14.8787 32.1213C14.3161 31.5587 14 30.7956 14 30V21H34V30C34 30.7956 33.6839 31.5587 33.1213 32.1213C32.5587 32.6839 31.7956 33 31 33Z" fill="black"/>
<path d="M24 27.5C24.8284 27.5 25.5 26.8284 25.5 26C25.5 25.1716 24.8284 24.5 24 24.5C23.1716 24.5 22.5 25.1716 22.5 26C22.5 26.8284 23.1716 27.5 24 27.5Z" fill="black"/>
<path d="M19 27.5C19.8284 27.5 20.5 26.8284 20.5 26C20.5 25.1716 19.8284 24.5 19 24.5C18.1716 24.5 17.5 25.1716 17.5 26C17.5 26.8284 18.1716 27.5 19 27.5Z" fill="black"/>
<path d="M29 27.5C29.8284 27.5 30.5 26.8284 30.5 26C30.5 25.1716 29.8284 24.5 29 24.5C28.1716 24.5 27.5 25.1716 27.5 26C27.5 26.8284 28.1716 27.5 29 27.5Z" fill="black"/>
</svg>
