<svg width="24" height="15" viewBox="0 0 24 15" fill="none" xmlns="http://www.w3.org/2000/svg">
<path d="M15.7328 13.4093C15.4329 13.695 15.4213 14.1697 15.707 14.4696C15.9926 14.7696 16.4674 14.7812 16.7673 14.4955L15.7328 13.4093ZM23.5172 8.06701C23.8172 7.78134 23.8288 7.30661 23.5431 7.00666C23.2574 6.70672 22.7827 6.69514 22.4828 6.9808L23.5172 8.06701ZM22.4828 8.06701C22.7827 8.35267 23.2574 8.3411 23.5431 8.04115C23.8288 7.7412 23.8172 7.26647 23.5172 6.9808L22.4828 8.06701ZM16.7673 0.552315C16.4674 0.26665 15.9926 0.278229 15.707 0.578176C15.4213 0.878124 15.4329 1.35286 15.7328 1.63852L16.7673 0.552315ZM23 8.25C23.4142 8.25 23.75 7.91421 23.75 7.5C23.75 7.08579 23.4142 6.75 23 6.75V8.25ZM1 6.75C0.585787 6.75 0.25 7.08579 0.25 7.5C0.25 7.91421 0.585787 8.25 1 8.25V6.75ZM16.7673 14.4955L23.5172 8.06701L22.4828 6.9808L15.7328 13.4093L16.7673 14.4955ZM23.5172 6.9808L16.7673 0.552315L15.7328 1.63852L22.4828 8.06701L23.5172 6.9808ZM23 6.75L1 6.75V8.25L23 8.25V6.75Z" fill="#676777"/>
</svg>
