<svg width="25" height="25" viewBox="0 0 25 25" fill="none" xmlns="http://www.w3.org/2000/svg">
<g id="Group 28">
<path id="Vector" d="M12.0186 0C5.38092 0 0 5.38092 0 12.0186C0 18.6562 5.38092 24.0371 12.0186 24.0371C18.6562 24.0371 24.0371 18.6562 24.0371 12.0186C24.0371 5.38092 18.6562 0 12.0186 0ZM19.4673 8.8402L20.2433 6.33122C21.289 7.84692 21.8931 9.62325 21.9883 11.4622L19.8463 9.9532C19.4922 9.7035 19.3391 9.25416 19.4673 8.8402ZM14.6153 2.35519H14.6073L12.6073 3.81117C12.2567 4.06603 11.7818 4.06603 11.4313 3.81117L9.43125 2.35519C11.1272 1.88456 12.9193 1.88456 14.6153 2.35519ZM3.78727 6.3322L4.56328 8.8402C4.69144 9.25416 4.53839 9.7035 4.1843 9.9532L2.0423 11.4622C2.1375 9.62358 2.74162 7.84753 3.78727 6.3322ZM4.0223 17.9862L6.76931 17.9952C7.20295 17.9961 7.58663 18.2764 7.71933 18.6892L8.58333 21.3822C6.76725 20.7138 5.18325 19.5344 4.0223 17.9862ZM15.4483 21.3822L16.3113 18.6892C16.4438 18.2767 16.827 17.9965 17.2603 17.9952L20.0083 17.9862C18.8479 19.5346 17.2642 20.714 15.4483 21.3822ZM21.1843 15.9822L17.2543 15.9952C15.9531 15.9969 14.8021 16.8394 14.4073 18.0792L13.1722 21.9292C12.404 22.0266 11.6265 22.0266 10.8583 21.9292L9.62325 18.0782C9.22791 16.8384 8.07656 15.9963 6.77527 15.9952L2.84625 15.9832C2.54386 15.2856 2.32275 14.5554 2.18723 13.8072L5.33625 11.5882C6.40069 10.8411 6.86067 9.49195 6.47423 8.25019L5.33925 4.57819C5.91281 4.05698 6.54506 3.60427 7.22325 3.22917L10.2512 5.42916C11.3023 6.19594 12.7282 6.19594 13.7792 5.42916L16.8072 3.22917C17.4853 3.6045 18.1175 4.05717 18.6912 4.57819L17.5562 8.25019C17.1698 9.49191 17.6298 10.8411 18.6942 11.5882L21.8432 13.8072C21.7079 14.5551 21.4867 15.2849 21.1843 15.9822Z" fill="black"/>
<path id="Vector_2" d="M15.4013 9.22623L13.4843 7.83423C12.6092 7.19523 11.4214 7.19523 10.5463 7.83423L8.6293 9.22623C7.74913 9.86219 7.38186 10.9947 7.72129 12.0262L8.45329 14.2792C8.78783 15.3085 9.74802 16.0045 10.8303 16.0022H13.2003C14.2836 16.0023 15.2438 15.3046 15.5783 14.2742L16.3093 12.0212C16.6466 10.9912 16.2795 9.8613 15.4013 9.22623ZM14.4073 11.4032L13.6762 13.6562C13.6095 13.8626 13.4172 14.0023 13.2002 14.0022H10.8302C10.6137 14.0019 10.4219 13.8622 10.3552 13.6562L9.62329 11.4022C9.55593 11.1958 9.62948 10.9696 9.8053 10.8422L11.7213 9.45222C11.8966 9.32481 12.1341 9.32481 12.3093 9.45222L14.2263 10.8442C14.4013 10.9717 14.4743 11.1973 14.4073 11.4032Z" fill="black"/>
</g>
</svg>
