<svg width="19" height="18" viewBox="0 0 19 18" fill="none" xmlns="http://www.w3.org/2000/svg">
<path d="M1.13938 7.61109C0.868419 7.36051 1.01561 6.90752 1.3821 6.86406L6.57516 6.24811C6.72453 6.2304 6.85427 6.1366 6.91727 6.00002L9.10763 1.25138C9.26221 0.91625 9.73864 0.916185 9.89322 1.25132L12.0836 5.99991C12.1466 6.1365 12.2755 6.23055 12.4249 6.24826L17.6182 6.86406C17.9847 6.90752 18.1315 7.36064 17.8605 7.61122L14.0216 11.162C13.9111 11.2641 13.862 11.4161 13.8913 11.5637L14.9101 16.6928C14.9821 17.0548 14.5968 17.3353 14.2748 17.155L9.71163 14.6001C9.58038 14.5266 9.42092 14.527 9.28967 14.6004L4.72606 17.1544C4.40402 17.3346 4.01806 17.0548 4.08999 16.6928L5.109 11.564C5.13831 11.4165 5.08927 11.2641 4.97884 11.162L1.13938 7.61109Z" stroke="#696D83" stroke-linecap="round" stroke-linejoin="round"/>
</svg>
