<svg width="49" height="49" viewBox="0 0 49 49" fill="none" xmlns="http://www.w3.org/2000/svg">
<circle cx="24.5" cy="24.5" r="24.5" fill="#CCD0DB"/>
<path d="M24 37C21.6266 37 19.3066 36.2962 17.3332 34.9776C15.3598 33.6591 13.8217 31.7849 12.9135 29.5922C12.0052 27.3995 11.7676 24.9867 12.2306 22.6589C12.6936 20.3312 13.8365 18.193 15.5147 16.5147C17.193 14.8365 19.3312 13.6936 21.6589 13.2306C23.9867 12.7676 26.3995 13.0052 28.5922 13.9135C30.7849 14.8217 32.6591 16.3598 33.9776 18.3332C35.2962 20.3066 36 22.6266 36 25C35.9966 28.1815 34.7312 31.2318 32.4815 33.4815C30.2318 35.7312 27.1815 36.9966 24 37ZM24 15C22.0222 15 20.0888 15.5865 18.4443 16.6853C16.7998 17.7841 15.5181 19.3459 14.7612 21.1732C14.0043 23.0004 13.8063 25.0111 14.1922 26.9509C14.578 28.8907 15.5304 30.6725 16.9289 32.0711C18.3275 33.4696 20.1093 34.422 22.0491 34.8079C23.9889 35.1937 25.9996 34.9957 27.8268 34.2388C29.6541 33.4819 31.2159 32.2002 32.3147 30.5557C33.4135 28.9112 34 26.9778 34 25C33.9971 22.3487 32.9426 19.8069 31.0679 17.9322C29.1931 16.0574 26.6513 15.0029 24 15ZM20 27C19.8439 26.9993 19.6899 27.0351 19.5502 27.1047C19.4104 27.1742 19.2889 27.2754 19.1953 27.4003C19.1017 27.5252 19.0387 27.6702 19.0112 27.8239C18.9837 27.9775 18.9925 28.1354 19.037 28.285C19.3953 29.3325 20.0614 30.2475 20.9481 30.9103C21.8348 31.5731 22.9009 31.9529 24.007 32C25.1135 31.9564 26.1808 31.5778 27.0675 30.9145C27.9542 30.2511 28.6187 29.3342 28.973 28.285C29.013 28.1356 29.0186 27.9791 28.9893 27.8273C28.96 27.6754 28.8966 27.5322 28.8038 27.4084C28.7111 27.2847 28.5914 27.1836 28.4539 27.1129C28.3164 27.0421 28.1646 27.0035 28.01 27H20ZM18 23C18 24 18.895 24 20 24C21.105 24 22 24 22 23C22 22.4696 21.7893 21.9609 21.4142 21.5858C21.0391 21.2107 20.5304 21 20 21C19.4696 21 18.9609 21.2107 18.5858 21.5858C18.2107 21.9609 18 22.4696 18 23ZM26 23C26 24 26.895 24 28 24C29.105 24 30 24 30 23C30 22.4696 29.7893 21.9609 29.4142 21.5858C29.0391 21.2107 28.5304 21 28 21C27.4696 21 26.9609 21.2107 26.5858 21.5858C26.2107 21.9609 26 22.4696 26 23Z" fill="black"/>
</svg>
