<svg width="49" height="49" viewBox="0 0 49 49" fill="none" xmlns="http://www.w3.org/2000/svg">
<circle cx="24.5" cy="24.5" r="24.5" fill="#757982"/>
<path d="M25.0186 13C18.3809 13 13 18.3809 13 25.0186C13 31.6562 18.3809 37.0371 25.0186 37.0371C31.6562 37.0371 37.0371 31.6562 37.0371 25.0186C37.0371 18.3809 31.6562 13 25.0186 13ZM32.4673 21.8402L33.2433 19.3312C34.289 20.8469 34.8931 22.6233 34.9883 24.4622L32.8463 22.9532C32.4922 22.7035 32.3391 22.2542 32.4673 21.8402ZM27.6153 15.3552H27.6073L25.6073 16.8112C25.2567 17.066 24.7818 17.066 24.4313 16.8112L22.4312 15.3552C24.1272 14.8846 25.9193 14.8846 27.6153 15.3552ZM16.7873 19.3322L17.5633 21.8402C17.6914 22.2542 17.5384 22.7035 17.1843 22.9532L15.0423 24.4622C15.1375 22.6236 15.7416 20.8475 16.7873 19.3322ZM17.0223 30.9862L19.7693 30.9952C20.203 30.9961 20.5866 31.2764 20.7193 31.6892L21.5833 34.3822C19.7673 33.7138 18.1832 32.5344 17.0223 30.9862ZM28.4483 34.3822L29.3113 31.6892C29.4438 31.2767 29.827 30.9965 30.2603 30.9952L33.0083 30.9862C31.8479 32.5346 30.2642 33.714 28.4483 34.3822ZM34.1843 28.9822L30.2543 28.9952C28.9531 28.9969 27.8021 29.8394 27.4073 31.0792L26.1722 34.9292C25.404 35.0266 24.6265 35.0266 23.8583 34.9292L22.6233 31.0782C22.2279 29.8384 21.0766 28.9963 19.7753 28.9952L15.8463 28.9832C15.5439 28.2856 15.3227 27.5554 15.1872 26.8072L18.3362 24.5882C19.4007 23.8411 19.8607 22.492 19.4742 21.2502L18.3393 17.5782C18.9128 17.057 19.5451 16.6043 20.2233 16.2292L23.2512 18.4292C24.3023 19.1959 25.7282 19.1959 26.7792 18.4292L29.8072 16.2292C30.4853 16.6045 31.1175 17.0572 31.6912 17.5782L30.5562 21.2502C30.1698 22.4919 30.6298 23.8411 31.6942 24.5882L34.8432 26.8072C34.7079 27.5551 34.4867 28.2849 34.1843 28.9822Z" fill="black"/>
<path d="M28.4008 22.2262L26.4838 20.8342C25.6087 20.1952 24.4209 20.1952 23.5458 20.8342L21.6288 22.2262C20.7486 22.8622 20.3814 23.9947 20.7208 25.0262L21.4528 27.2792C21.7873 28.3085 22.7475 29.0045 23.8298 29.0022H26.1998C27.2831 29.0023 28.2433 28.3046 28.5778 27.2742L29.3088 25.0212C29.6461 23.9912 29.2791 22.8613 28.4008 22.2262ZM27.4068 24.4032L26.6758 26.6562C26.609 26.8626 26.4167 27.0023 26.1997 27.0022H23.8297C23.6132 27.0019 23.4215 26.8622 23.3548 26.6562L22.6228 24.4022C22.5554 24.1958 22.629 23.9696 22.8048 23.8422L24.7208 22.4522C24.8961 22.3248 25.1336 22.3248 25.3088 22.4522L27.2258 23.8442C27.4008 23.9717 27.4739 24.1973 27.4068 24.4032Z" fill="black"/>
</svg>
