<svg width="59" height="15" viewBox="0 0 59 15" fill="none" xmlns="http://www.w3.org/2000/svg">
<path d="M50.6802 13.7934C50.4802 13.9839 50.4725 14.3004 50.6629 14.5003C50.8534 14.7003 51.1699 14.708 51.3698 14.5176L50.6802 13.7934ZM58.2765 7.93983C58.4764 7.74938 58.4842 7.4329 58.2937 7.23293C58.1033 7.03297 57.7868 7.02525 57.5868 7.21569L58.2765 7.93983ZM57.5868 7.93983C57.7868 8.13027 58.1033 8.12255 58.2937 7.92259C58.4842 7.72262 58.4764 7.40613 58.2765 7.21569L57.5868 7.93983ZM51.3698 0.637931C51.1699 0.447488 50.8534 0.455207 50.6629 0.655172C50.4725 0.855138 50.4802 1.17163 50.6802 1.36207L51.3698 0.637931ZM57.7209 7.8023C57.997 7.8023 58.2209 7.57845 58.2209 7.3023C58.2209 7.02616 57.997 6.8023 57.7209 6.8023V7.8023ZM0.999813 6.8023C0.723671 6.8023 0.499813 7.02616 0.499813 7.3023C0.499813 7.57845 0.723671 7.8023 0.999813 7.8023V6.8023ZM51.3698 14.5176L58.2765 7.93983L57.5868 7.21569L50.6802 13.7934L51.3698 14.5176ZM58.2765 7.21569L51.3698 0.637931L50.6802 1.36207L57.5868 7.93983L58.2765 7.21569ZM57.7209 6.8023L0.999813 6.8023V7.8023L57.7209 7.8023V6.8023Z" fill="white"/>
</svg>
