<svg width="49" height="49" viewBox="0 0 49 49" fill="none" xmlns="http://www.w3.org/2000/svg">
<circle cx="24.5" cy="24.5" r="24.5" fill="#FFD28E"/>
<path d="M33.9202 16.9609C33.6005 16.8222 33.2484 16.7857 32.9087 16.8562C32.569 16.9266 32.2571 17.1008 32.0128 17.3565L29.75 19.7133L25.7372 15.5337C25.4091 15.192 24.964 15 24.5 15C24.036 15 23.5909 15.192 23.2627 15.5337L19.25 19.7133L16.9872 17.3565C16.7425 17.1016 16.4307 16.9281 16.0913 16.8578C15.7519 16.7875 15.4001 16.8236 15.0804 16.9615C14.7606 17.0994 14.4873 17.333 14.295 17.6327C14.1027 17.9324 14.0001 18.2847 14 18.6452V28.2931C14.0014 29.5012 14.4628 30.6594 15.2829 31.5137C16.1031 32.368 17.2151 32.8486 18.375 32.85H30.625C31.7849 32.8486 32.8969 32.368 33.7171 31.5137C34.5372 30.6594 34.9986 29.5012 35 28.2931V18.6452C35.0001 18.2847 34.8976 17.9323 34.7054 17.6325C34.5132 17.3327 34.2399 17.099 33.9202 16.9609ZM33.25 28.2931C33.25 29.0182 32.9734 29.7137 32.4812 30.2264C31.9889 30.7392 31.3212 31.0272 30.625 31.0272H18.375C17.6788 31.0272 17.0111 30.7392 16.5188 30.2264C16.0266 29.7137 15.75 29.0182 15.75 28.2931V18.6452L18.6314 21.6463C18.7955 21.8172 19.018 21.9132 19.25 21.9132C19.482 21.9132 19.7045 21.8172 19.8686 21.6463L24.5 16.8224L29.1314 21.6463C29.2955 21.8172 29.518 21.9132 29.75 21.9132C29.982 21.9132 30.2045 21.8172 30.3686 21.6463L33.25 18.6452V28.2931Z" fill="black"/>
</svg>
