<svg width="52" height="52" viewBox="0 0 52 52" fill="none" xmlns="http://www.w3.org/2000/svg">
<g id="Group 53">
<circle id="Ellipse 26" cx="26" cy="26" r="26" fill="#E1E1E1"/>
<path id="Vector-12" d="M27.3772 33.3046C27.0772 33.5902 27.0657 34.0649 27.3513 34.3649C27.637 34.6648 28.1117 34.6764 28.4117 34.3908L27.3772 33.3046ZM36.2067 26.9669C36.5066 26.6813 36.5182 26.2065 36.2326 25.9066C35.9469 25.6066 35.4722 25.5951 35.1722 25.8807L36.2067 26.9669ZM35.1722 26.9669C35.4722 27.2526 35.9469 27.241 36.2326 26.9411C36.5182 26.6411 36.5066 26.1664 36.2067 25.8807L35.1722 26.9669ZM28.4117 18.4569C28.1117 18.1712 27.637 18.1828 27.3513 18.4828C27.0657 18.7827 27.0772 19.2574 27.3772 19.5431L28.4117 18.4569ZM35.6895 27.1738C36.1037 27.1738 36.4395 26.8381 36.4395 26.4238C36.4395 26.0096 36.1037 25.6738 35.6895 25.6738V27.1738ZM14.9027 25.6738C14.4885 25.6738 14.1527 26.0096 14.1527 26.4238C14.1527 26.8381 14.4885 27.1738 14.9027 27.1738V25.6738ZM28.4117 34.3908L36.2067 26.9669L35.1722 25.8807L27.3772 33.3046L28.4117 34.3908ZM36.2067 25.8807L28.4117 18.4569L27.3772 19.5431L35.1722 26.9669L36.2067 25.8807ZM35.6895 25.6738H14.9027V27.1738L35.6895 27.1738V25.6738Z" fill="black"/>
</g>
</svg>
