<svg width="15" height="22" viewBox="0 0 15 22" fill="none" xmlns="http://www.w3.org/2000/svg">
<path d="M7.31206 15.5807V8.54048C7.31206 7.68535 8.06518 6.99243 8.9946 6.99243C9.92402 6.99243 10.6771 7.68535 10.6771 8.54048V11.8499C10.6771 12.6557 10.909 13.4544 11.39 14.1261C11.6468 14.4823 12.0186 14.8067 12.4574 15.1417C14.1112 16.4059 13.8602 20.38 11.2041 20.38H6.90963C6.13543 20.38 5.39572 20.0891 4.86107 19.5743L2.29126 17.1006C1.77768 16.6051 1.49023 15.9475 1.49023 15.2634V12.906C1.49023 12.2061 1.7911 11.5343 2.32576 11.0371L3.98722 9.49258" stroke="#7D8093" stroke-width="1.5" stroke-miterlimit="10"/>
<path d="M7.31163 14.4188H5.2784C4.55019 14.4188 3.95996 13.8758 3.95996 13.2058V2.39591C3.95996 1.72591 4.55019 1.18286 5.2784 1.18286H12.6812C13.4094 1.18286 13.9996 1.72591 13.9996 2.39591V13.2075C13.9996 13.8775 13.4094 14.4206 12.6812 14.4206H11.633" stroke="#7D8093" stroke-width="1.5" stroke-miterlimit="10"/>
</svg>
